<?xml version="1.0" encoding="utf-8"?>
<svg xmlns="http://www.w3.org/2000/svg" xmlns:xlink="http://www.w3.org/1999/xlink" style="margin: auto; background: none; display: block; shape-rendering: auto;" width="164px" height="164px" viewBox="0 0 100 100" preserveAspectRatio="xMidYMid">
<g transform="rotate(0 50 50)">
  <rect x="45" y="13" rx="2.1" ry="2.1" width="10" height="8" fill="#ff224e">
    <animate attributeName="opacity" values="1;0" keyTimes="0;1" dur="0.46511627906976744s" begin="-0.45058139534883723s" repeatCount="indefinite"></animate>
  </rect>
</g><g transform="rotate(11.25 50 50)">
  <rect x="45" y="13" rx="2.1" ry="2.1" width="10" height="8" fill="#ff224e">
    <animate attributeName="opacity" values="1;0" keyTimes="0;1" dur="0.46511627906976744s" begin="-0.436046511627907s" repeatCount="indefinite"></animate>
  </rect>
</g><g transform="rotate(22.5 50 50)">
  <rect x="45" y="13" rx="2.1" ry="2.1" width="10" height="8" fill="#ff224e">
    <animate attributeName="opacity" values="1;0" keyTimes="0;1" dur="0.46511627906976744s" begin="-0.42151162790697677s" repeatCount="indefinite"></animate>
  </rect>
</g><g transform="rotate(33.75 50 50)">
  <rect x="45" y="13" rx="2.1" ry="2.1" width="10" height="8" fill="#ff224e">
    <animate attributeName="opacity" values="1;0" keyTimes="0;1" dur="0.46511627906976744s" begin="-0.4069767441860465s" repeatCount="indefinite"></animate>
  </rect>
</g><g transform="rotate(45 50 50)">
  <rect x="45" y="13" rx="2.1" ry="2.1" width="10" height="8" fill="#ff224e">
    <animate attributeName="opacity" values="1;0" keyTimes="0;1" dur="0.46511627906976744s" begin="-0.3924418604651163s" repeatCount="indefinite"></animate>
  </rect>
</g><g transform="rotate(56.25 50 50)">
  <rect x="45" y="13" rx="2.1" ry="2.1" width="10" height="8" fill="#ff224e">
    <animate attributeName="opacity" values="1;0" keyTimes="0;1" dur="0.46511627906976744s" begin="-0.37790697674418605s" repeatCount="indefinite"></animate>
  </rect>
</g><g transform="rotate(67.5 50 50)">
  <rect x="45" y="13" rx="2.1" ry="2.1" width="10" height="8" fill="#ff224e">
    <animate attributeName="opacity" values="1;0" keyTimes="0;1" dur="0.46511627906976744s" begin="-0.36337209302325585s" repeatCount="indefinite"></animate>
  </rect>
</g><g transform="rotate(78.75 50 50)">
  <rect x="45" y="13" rx="2.1" ry="2.1" width="10" height="8" fill="#ff224e">
    <animate attributeName="opacity" values="1;0" keyTimes="0;1" dur="0.46511627906976744s" begin="-0.3488372093023256s" repeatCount="indefinite"></animate>
  </rect>
</g><g transform="rotate(90 50 50)">
  <rect x="45" y="13" rx="2.1" ry="2.1" width="10" height="8" fill="#ff224e">
    <animate attributeName="opacity" values="1;0" keyTimes="0;1" dur="0.46511627906976744s" begin="-0.3343023255813954s" repeatCount="indefinite"></animate>
  </rect>
</g><g transform="rotate(101.25 50 50)">
  <rect x="45" y="13" rx="2.1" ry="2.1" width="10" height="8" fill="#ff224e">
    <animate attributeName="opacity" values="1;0" keyTimes="0;1" dur="0.46511627906976744s" begin="-0.31976744186046513s" repeatCount="indefinite"></animate>
  </rect>
</g><g transform="rotate(112.5 50 50)">
  <rect x="45" y="13" rx="2.1" ry="2.1" width="10" height="8" fill="#ff224e">
    <animate attributeName="opacity" values="1;0" keyTimes="0;1" dur="0.46511627906976744s" begin="-0.30523255813953487s" repeatCount="indefinite"></animate>
  </rect>
</g><g transform="rotate(123.75 50 50)">
  <rect x="45" y="13" rx="2.1" ry="2.1" width="10" height="8" fill="#ff224e">
    <animate attributeName="opacity" values="1;0" keyTimes="0;1" dur="0.46511627906976744s" begin="-0.29069767441860467s" repeatCount="indefinite"></animate>
  </rect>
</g><g transform="rotate(135 50 50)">
  <rect x="45" y="13" rx="2.1" ry="2.1" width="10" height="8" fill="#ff224e">
    <animate attributeName="opacity" values="1;0" keyTimes="0;1" dur="0.46511627906976744s" begin="-0.2761627906976744s" repeatCount="indefinite"></animate>
  </rect>
</g><g transform="rotate(146.25 50 50)">
  <rect x="45" y="13" rx="2.1" ry="2.1" width="10" height="8" fill="#ff224e">
    <animate attributeName="opacity" values="1;0" keyTimes="0;1" dur="0.46511627906976744s" begin="-0.2616279069767442s" repeatCount="indefinite"></animate>
  </rect>
</g><g transform="rotate(157.5 50 50)">
  <rect x="45" y="13" rx="2.1" ry="2.1" width="10" height="8" fill="#ff224e">
    <animate attributeName="opacity" values="1;0" keyTimes="0;1" dur="0.46511627906976744s" begin="-0.24709302325581398s" repeatCount="indefinite"></animate>
  </rect>
</g><g transform="rotate(168.75 50 50)">
  <rect x="45" y="13" rx="2.1" ry="2.1" width="10" height="8" fill="#ff224e">
    <animate attributeName="opacity" values="1;0" keyTimes="0;1" dur="0.46511627906976744s" begin="-0.23255813953488372s" repeatCount="indefinite"></animate>
  </rect>
</g><g transform="rotate(180 50 50)">
  <rect x="45" y="13" rx="2.1" ry="2.1" width="10" height="8" fill="#ff224e">
    <animate attributeName="opacity" values="1;0" keyTimes="0;1" dur="0.46511627906976744s" begin="-0.2180232558139535s" repeatCount="indefinite"></animate>
  </rect>
</g><g transform="rotate(191.25 50 50)">
  <rect x="45" y="13" rx="2.1" ry="2.1" width="10" height="8" fill="#ff224e">
    <animate attributeName="opacity" values="1;0" keyTimes="0;1" dur="0.46511627906976744s" begin="-0.20348837209302326s" repeatCount="indefinite"></animate>
  </rect>
</g><g transform="rotate(202.5 50 50)">
  <rect x="45" y="13" rx="2.1" ry="2.1" width="10" height="8" fill="#ff224e">
    <animate attributeName="opacity" values="1;0" keyTimes="0;1" dur="0.46511627906976744s" begin="-0.18895348837209303s" repeatCount="indefinite"></animate>
  </rect>
</g><g transform="rotate(213.75 50 50)">
  <rect x="45" y="13" rx="2.1" ry="2.1" width="10" height="8" fill="#ff224e">
    <animate attributeName="opacity" values="1;0" keyTimes="0;1" dur="0.46511627906976744s" begin="-0.1744186046511628s" repeatCount="indefinite"></animate>
  </rect>
</g><g transform="rotate(225 50 50)">
  <rect x="45" y="13" rx="2.1" ry="2.1" width="10" height="8" fill="#ff224e">
    <animate attributeName="opacity" values="1;0" keyTimes="0;1" dur="0.46511627906976744s" begin="-0.15988372093023256s" repeatCount="indefinite"></animate>
  </rect>
</g><g transform="rotate(236.25 50 50)">
  <rect x="45" y="13" rx="2.1" ry="2.1" width="10" height="8" fill="#ff224e">
    <animate attributeName="opacity" values="1;0" keyTimes="0;1" dur="0.46511627906976744s" begin="-0.14534883720930233s" repeatCount="indefinite"></animate>
  </rect>
</g><g transform="rotate(247.5 50 50)">
  <rect x="45" y="13" rx="2.1" ry="2.1" width="10" height="8" fill="#ff224e">
    <animate attributeName="opacity" values="1;0" keyTimes="0;1" dur="0.46511627906976744s" begin="-0.1308139534883721s" repeatCount="indefinite"></animate>
  </rect>
</g><g transform="rotate(258.75 50 50)">
  <rect x="45" y="13" rx="2.1" ry="2.1" width="10" height="8" fill="#ff224e">
    <animate attributeName="opacity" values="1;0" keyTimes="0;1" dur="0.46511627906976744s" begin="-0.11627906976744186s" repeatCount="indefinite"></animate>
  </rect>
</g><g transform="rotate(270 50 50)">
  <rect x="45" y="13" rx="2.1" ry="2.1" width="10" height="8" fill="#ff224e">
    <animate attributeName="opacity" values="1;0" keyTimes="0;1" dur="0.46511627906976744s" begin="-0.10174418604651163s" repeatCount="indefinite"></animate>
  </rect>
</g><g transform="rotate(281.25 50 50)">
  <rect x="45" y="13" rx="2.1" ry="2.1" width="10" height="8" fill="#ff224e">
    <animate attributeName="opacity" values="1;0" keyTimes="0;1" dur="0.46511627906976744s" begin="-0.0872093023255814s" repeatCount="indefinite"></animate>
  </rect>
</g><g transform="rotate(292.5 50 50)">
  <rect x="45" y="13" rx="2.1" ry="2.1" width="10" height="8" fill="#ff224e">
    <animate attributeName="opacity" values="1;0" keyTimes="0;1" dur="0.46511627906976744s" begin="-0.07267441860465117s" repeatCount="indefinite"></animate>
  </rect>
</g><g transform="rotate(303.75 50 50)">
  <rect x="45" y="13" rx="2.1" ry="2.1" width="10" height="8" fill="#ff224e">
    <animate attributeName="opacity" values="1;0" keyTimes="0;1" dur="0.46511627906976744s" begin="-0.05813953488372093s" repeatCount="indefinite"></animate>
  </rect>
</g><g transform="rotate(315 50 50)">
  <rect x="45" y="13" rx="2.1" ry="2.1" width="10" height="8" fill="#ff224e">
    <animate attributeName="opacity" values="1;0" keyTimes="0;1" dur="0.46511627906976744s" begin="-0.0436046511627907s" repeatCount="indefinite"></animate>
  </rect>
</g><g transform="rotate(326.25 50 50)">
  <rect x="45" y="13" rx="2.1" ry="2.1" width="10" height="8" fill="#ff224e">
    <animate attributeName="opacity" values="1;0" keyTimes="0;1" dur="0.46511627906976744s" begin="-0.029069767441860465s" repeatCount="indefinite"></animate>
  </rect>
</g><g transform="rotate(337.5 50 50)">
  <rect x="45" y="13" rx="2.1" ry="2.1" width="10" height="8" fill="#ff224e">
    <animate attributeName="opacity" values="1;0" keyTimes="0;1" dur="0.46511627906976744s" begin="-0.014534883720930232s" repeatCount="indefinite"></animate>
  </rect>
</g><g transform="rotate(348.75 50 50)">
  <rect x="45" y="13" rx="2.1" ry="2.1" width="10" height="8" fill="#ff224e">
    <animate attributeName="opacity" values="1;0" keyTimes="0;1" dur="0.46511627906976744s" begin="0s" repeatCount="indefinite"></animate>
  </rect>
</g>
<!-- [ldio] generated by https://loading.io/ --></svg>